# Blender 4.5.5 LTS
# www.blender.org
# Grass stalk – gradual linear taper, max 15° full included angle
mtllib grass-stalk.mtl
o Plane
# ── Base (8 cm wide) ──
v -0.040000  0.000000  0.000000
v  0.040000  0.000000  0.000000
# ── Lower-mid (full width) ──
v -0.040000  0.140000  0.000000
v  0.040000  0.140000  0.000000
# ── Taper start (full width at y=0.74) ──
v -0.040000  0.740000  0.000000
v  0.040000  0.740000  0.000000
# ── Taper 1 (y=0.84, hw=0.027) → 14.8° ──
v -0.027000  0.840000  0.000000
v  0.027000  0.840000  0.000000
# ── Taper 2 (y=0.94, hw=0.014) → 14.6° ──
v -0.014000  0.940000  0.000000
v  0.014000  0.940000  0.000000
# ── Rounded tip (y=1.04, hw=0.001) → 14.8° ──
v -0.001000  1.040000  0.000000
v  0.001000  1.040000  0.000000
# ── Normals ──
vn -0.1000  0.0000  0.9950
vn  0.1000  0.0000  0.9950
vn  0.0000  0.0000  1.0000
# ── UVs (y = 0 base → 1 tip) ──
vt  0.000000  0.000000
vt  1.000000  0.000000
vt  0.000000  0.134615
vt  1.000000  0.134615
vt  0.000000  0.711538
vt  1.000000  0.711538
vt  0.162500  0.807692
vt  0.837500  0.807692
vt  0.325000  0.903846
vt  0.675000  0.903846
vt  0.487500  1.000000
vt  0.512500  1.000000
s 1
# Base → lower-mid
f 1/1/1 2/2/2 4/4/2 3/3/1
# Lower-mid → taper start
f 3/3/1 4/4/2 6/6/2 5/5/1
# Taper start → taper 1
f 5/5/1 6/6/2 8/8/2 7/7/1
# Taper 1 → taper 2
f 7/7/1 8/8/2 10/10/2 9/9/1
# Taper 2 → rounded tip
f 9/9/1 10/10/2 12/12/3 11/11/3
